# xmcd CD database file
#
# Track frame offsets:
#	150
#	19128
#	36268
#	53443
#	71915
#	88575
#	105265
#	121580
#	141640
#	156968
#	172708
#
# Disc length: 2539 seconds
#
# Revision: 0
# Processed by: cddbd v1.5PL3 Copyright (c) Steve Scherf et al.
# Submitted via: CDex 1.51
#
DISCID=8709e90b
DTITLE=倉沢淳美 - プライベート
DYEAR=1996
DGENRE=Pop
TTITLE0=あさって恋して
TTITLE1=土曜日はエスケイプ
TTITLE2=1^2(＝ひとりぼっち＋涙)
TTITLE3=卒業まで
TTITLE4=Good-by 少女
TTITLE5=ある愛の詩
TTITLE6=マイセルフVSユアセルフ
TTITLE7=オータム・セレナーデ
TTITLE8=今度の彼はHです
TTITLE9=恋にクローズアップ
TTITLE10=7月11日現在
EXTD=YEAR: 1996
EXTT0=
EXTT1=
EXTT2=
EXTT3=
EXTT4=
EXTT5=
EXTT6=
EXTT7=
EXTT8=
EXTT9=
EXTT10=
PLAYORDER=
